<mxfile host="app.diagrams.net" agent="Mozilla/5.0 (Windows NT 10.0; Win64; x64) AppleWebKit/537.36 (KHTML, like Gecko) Chrome/128.0.0.0 Safari/537.36" version="24.7.16" pages="2">
  <diagram name="Page-1" id="aUacA8lf-n61MSRbDWvZ">
    <mxGraphModel grid="1" page="1" gridSize="10" guides="1" tooltips="1" connect="1" arrows="1" fold="1" pageScale="1" pageWidth="850" pageHeight="1100" math="0" shadow="0">
      <root>
        <mxCell id="0" />
        <mxCell id="1" parent="0" />
        <mxCell id="_AFsvRJi2R7-SauzWfIj-3" value="Mengelola Akun" style="rounded=1;whiteSpace=wrap;html=1;" vertex="1" parent="1">
          <mxGeometry x="-670" y="240" width="120" height="60" as="geometry" />
        </mxCell>
        <mxCell id="_AFsvRJi2R7-SauzWfIj-4" value="Rekonsiliasi Kas" style="rounded=1;whiteSpace=wrap;html=1;" vertex="1" parent="1">
          <mxGeometry x="-840" y="220" width="120" height="60" as="geometry" />
        </mxCell>
        <mxCell id="_AFsvRJi2R7-SauzWfIj-5" value="Penutupan Periode Akuntansi&amp;nbsp;" style="rounded=1;whiteSpace=wrap;html=1;fillColor=#e1d5e7;strokeColor=#9673a6;" vertex="1" parent="1">
          <mxGeometry x="-470" y="400" width="220" height="60" as="geometry" />
        </mxCell>
        <mxCell id="_AFsvRJi2R7-SauzWfIj-9" style="edgeStyle=orthogonalEdgeStyle;rounded=0;orthogonalLoop=1;jettySize=auto;html=1;curved=1;" edge="1" parent="1" source="_AFsvRJi2R7-SauzWfIj-6" target="_AFsvRJi2R7-SauzWfIj-4">
          <mxGeometry relative="1" as="geometry" />
        </mxCell>
        <mxCell id="_AFsvRJi2R7-SauzWfIj-10" style="edgeStyle=orthogonalEdgeStyle;rounded=0;orthogonalLoop=1;jettySize=auto;html=1;exitX=0.5;exitY=1;exitDx=0;exitDy=0;entryX=0.5;entryY=0;entryDx=0;entryDy=0;curved=1;" edge="1" parent="1" source="_AFsvRJi2R7-SauzWfIj-6" target="_AFsvRJi2R7-SauzWfIj-3">
          <mxGeometry relative="1" as="geometry" />
        </mxCell>
        <mxCell id="_AFsvRJi2R7-SauzWfIj-12" style="edgeStyle=orthogonalEdgeStyle;rounded=0;orthogonalLoop=1;jettySize=auto;html=1;exitX=0.75;exitY=1;exitDx=0;exitDy=0;entryX=0;entryY=0.25;entryDx=0;entryDy=0;curved=1;" edge="1" parent="1" source="_AFsvRJi2R7-SauzWfIj-6" target="_AFsvRJi2R7-SauzWfIj-7">
          <mxGeometry relative="1" as="geometry" />
        </mxCell>
        <mxCell id="_AFsvRJi2R7-SauzWfIj-27" style="edgeStyle=orthogonalEdgeStyle;rounded=0;orthogonalLoop=1;jettySize=auto;html=1;entryX=0.5;entryY=0;entryDx=0;entryDy=0;curved=1;" edge="1" parent="1">
          <mxGeometry relative="1" as="geometry">
            <mxPoint x="-466.9230769230769" y="120" as="sourcePoint" />
            <mxPoint x="-360" y="400" as="targetPoint" />
          </mxGeometry>
        </mxCell>
        <mxCell id="_AFsvRJi2R7-SauzWfIj-6" value="Admin Keuangan" style="rounded=0;whiteSpace=wrap;html=1;" vertex="1" parent="1">
          <mxGeometry x="-567" y="70" width="120" height="60" as="geometry" />
        </mxCell>
        <mxCell id="_AFsvRJi2R7-SauzWfIj-7" value="Mengelola Persediaan" style="rounded=1;whiteSpace=wrap;html=1;" vertex="1" parent="1">
          <mxGeometry x="-311" y="270" width="120" height="60" as="geometry" />
        </mxCell>
        <mxCell id="_AFsvRJi2R7-SauzWfIj-28" style="edgeStyle=orthogonalEdgeStyle;rounded=0;orthogonalLoop=1;jettySize=auto;html=1;entryX=0.5;entryY=0;entryDx=0;entryDy=0;" edge="1" parent="1" source="_AFsvRJi2R7-SauzWfIj-8" target="_AFsvRJi2R7-SauzWfIj-7">
          <mxGeometry relative="1" as="geometry" />
        </mxCell>
        <mxCell id="_AFsvRJi2R7-SauzWfIj-30" style="edgeStyle=orthogonalEdgeStyle;rounded=0;orthogonalLoop=1;jettySize=auto;html=1;entryX=0;entryY=0.5;entryDx=0;entryDy=0;curved=1;" edge="1" parent="1" source="_AFsvRJi2R7-SauzWfIj-8" target="_AFsvRJi2R7-SauzWfIj-13">
          <mxGeometry relative="1" as="geometry" />
        </mxCell>
        <mxCell id="_AFsvRJi2R7-SauzWfIj-8" value="Karyawan" style="rounded=0;whiteSpace=wrap;html=1;" vertex="1" parent="1">
          <mxGeometry x="-311" y="100" width="120" height="60" as="geometry" />
        </mxCell>
        <mxCell id="_AFsvRJi2R7-SauzWfIj-21" style="edgeStyle=orthogonalEdgeStyle;rounded=0;orthogonalLoop=1;jettySize=auto;html=1;entryX=0.5;entryY=0;entryDx=0;entryDy=0;" edge="1" parent="1" source="_AFsvRJi2R7-SauzWfIj-13" target="_AFsvRJi2R7-SauzWfIj-15">
          <mxGeometry relative="1" as="geometry" />
        </mxCell>
        <mxCell id="_AFsvRJi2R7-SauzWfIj-13" value="Input Transaksi" style="rounded=1;whiteSpace=wrap;html=1;" vertex="1" parent="1">
          <mxGeometry x="-30" y="210" width="120" height="60" as="geometry" />
        </mxCell>
        <mxCell id="_AFsvRJi2R7-SauzWfIj-20" style="edgeStyle=orthogonalEdgeStyle;rounded=0;orthogonalLoop=1;jettySize=auto;html=1;entryX=0.5;entryY=0;entryDx=0;entryDy=0;curved=1;" edge="1" parent="1" source="_AFsvRJi2R7-SauzWfIj-14" target="_AFsvRJi2R7-SauzWfIj-13">
          <mxGeometry relative="1" as="geometry" />
        </mxCell>
        <mxCell id="_AFsvRJi2R7-SauzWfIj-14" value="Generate Laporan&amp;nbsp;&lt;div&gt;Keuangan&lt;/div&gt;" style="rounded=1;whiteSpace=wrap;html=1;fillColor=#98CF46;fontColor=#ffffff;strokeColor=#2D7600;" vertex="1" parent="1">
          <mxGeometry x="-30" y="100" width="200" height="60" as="geometry" />
        </mxCell>
        <mxCell id="_AFsvRJi2R7-SauzWfIj-15" value="Menghitung Pajak&amp;nbsp;" style="rounded=1;whiteSpace=wrap;html=1;fillColor=#fa6800;fontColor=#000000;strokeColor=#C73500;" vertex="1" parent="1">
          <mxGeometry x="-40" y="320" width="140" height="60" as="geometry" />
        </mxCell>
        <mxCell id="_AFsvRJi2R7-SauzWfIj-18" style="edgeStyle=orthogonalEdgeStyle;rounded=0;orthogonalLoop=1;jettySize=auto;html=1;entryX=0.5;entryY=0;entryDx=0;entryDy=0;curved=1;" edge="1" parent="1" source="_AFsvRJi2R7-SauzWfIj-16" target="_AFsvRJi2R7-SauzWfIj-17">
          <mxGeometry relative="1" as="geometry" />
        </mxCell>
        <mxCell id="_AFsvRJi2R7-SauzWfIj-19" style="edgeStyle=orthogonalEdgeStyle;rounded=0;orthogonalLoop=1;jettySize=auto;html=1;exitX=0;exitY=0.5;exitDx=0;exitDy=0;entryX=0.5;entryY=0;entryDx=0;entryDy=0;curved=1;" edge="1" parent="1" source="_AFsvRJi2R7-SauzWfIj-16" target="_AFsvRJi2R7-SauzWfIj-14">
          <mxGeometry relative="1" as="geometry" />
        </mxCell>
        <mxCell id="_AFsvRJi2R7-SauzWfIj-16" value="&lt;font style=&quot;font-size: 15px;&quot;&gt;Manajer Keuangan&lt;/font&gt;" style="rounded=0;whiteSpace=wrap;html=1;spacing=0;spacingRight=0;" vertex="1" parent="1">
          <mxGeometry x="200" y="20" width="220" height="60" as="geometry" />
        </mxCell>
        <mxCell id="_AFsvRJi2R7-SauzWfIj-17" value="Membaca Laporan&amp;nbsp;&lt;div&gt;Keuangan&lt;/div&gt;" style="rounded=1;whiteSpace=wrap;html=1;spacingRight=0;" vertex="1" parent="1">
          <mxGeometry x="270" y="150" width="200" height="60" as="geometry" />
        </mxCell>
      </root>
    </mxGraphModel>
  </diagram>
  <diagram id="WkdwckJ4e3yu8w58p0Pn" name="Page-2">
    <mxGraphModel grid="0" page="0" gridSize="10" guides="1" tooltips="1" connect="1" arrows="1" fold="1" pageScale="1" pageWidth="850" pageHeight="1100" math="0" shadow="0">
      <root>
        <mxCell id="0" />
        <mxCell id="1" parent="0" />
      </root>
    </mxGraphModel>
  </diagram>
</mxfile>
